<?xml version="1.0" encoding="utf-8"?>
<!-- Generator: Adobe Illustrator 25.0.0, SVG Export Plug-In . SVG Version: 6.00 Build 0)  -->
<svg version="1.1" id="Layer_1" xmlns="http://www.w3.org/2000/svg" xmlns:xlink="http://www.w3.org/1999/xlink" x="0px" y="0px"
	 viewBox="0 0 659.23 538.79" style="enable-background:new 0 0 659.23 538.79;" xml:space="preserve">
<style type="text/css">
	.st0{fill:#F87000;}
	.st1{enable-background:new    ;}
	.st2{fill:#333333;}
</style>
<g>
	<g>
		<g>
			<g>
				<g>
					<path class="st0" d="M449.44,362.92c-11.79,0-22.87-4.59-31.2-12.92c-8.34-8.32-12.93-19.4-12.93-31.19
						c0-11.77,4.59-22.85,12.9-31.16c8.34-8.34,19.42-12.93,31.2-12.93s22.85,4.58,31.18,12.91c17.2,17.2,17.2,45.19,0,62.39
						C472.28,358.35,461.21,362.92,449.44,362.92z"/>
				</g>
				<g>
					<path class="st0" d="M209.86,127.76c-11.78,0-22.87-4.59-31.2-12.93c-8.33-8.32-12.92-19.4-12.92-31.18s4.58-22.85,12.9-31.16
						c8.34-8.34,19.43-12.93,31.21-12.93c11.77,0,22.85,4.58,31.16,12.91c8.34,8.34,12.93,19.42,12.93,31.19
						c0,11.79-4.59,22.86-12.92,31.2C232.7,123.18,221.63,127.76,209.86,127.76z"/>
				</g>
				<path class="st0" d="M447.47,126.47c-11.79,0-22.87-4.59-31.19-12.92c-17.19-17.2-17.2-45.17-0.03-62.36
					c8.33-8.34,19.41-12.93,31.21-12.93c11.78,0,22.85,4.59,31.18,12.92c17.19,17.19,17.19,45.18,0,62.4
					C470.32,121.89,459.24,126.47,447.47,126.47z"/>
				<g>
					<path class="st0" d="M211,362.92c-11.78,0-22.87-4.59-31.21-12.92c-8.33-8.33-12.91-19.4-12.91-31.18s4.6-22.85,12.93-31.18
						c1.74-1.76,3.71-3.36,6.21-5.05c0.75-0.53,1.45-0.94,2.17-1.38c1.63-0.94,3.26-1.79,4.78-2.49c0.83-0.37,1.67-0.75,2.57-1.09
						c1.58-0.59,3.36-1.11,5.38-1.59c0.4-0.11,0.76-0.2,1.12-0.31c0.23-0.06,0.44-0.14,0.68-0.19l9.82-0.67
						c1.24,0.05,2.58,0.21,4,0.4l0.56,0.08c0.33,0.04,0.78,0.08,1.24,0.1l0.4,0.03l0.45,0.09h0.39c0.72,0.03,1.43,0.04,2.15,0.04
						c16.92,0,33.63-7.21,45.84-19.76c12.15-12.5,18.85-29.32,18.37-46.16l-0.01-0.5l-0.09-0.52c-0.09-0.47-0.12-0.95-0.15-1.42
						c-0.04-0.57-0.09-1.13-0.16-1.69l-0.11-0.99c-0.1-0.85-0.19-1.67-0.25-2.52l0.75-9.85c0.05-0.25,0.14-0.47,0.2-0.71l0.18-0.61
						c0.45-1.87,0.94-3.74,1.64-5.55c0.36-1.03,0.71-1.79,1.09-2.57c0.79-1.72,1.6-3.29,2.56-4.89c0.42-0.7,0.82-1.4,1.3-2.08
						c1.78-2.6,3.4-4.58,5.08-6.26c8.33-8.33,19.4-12.91,31.2-12.91c11.78,0,22.87,4.58,31.2,12.9
						c17.18,17.2,17.16,45.18-0.04,62.38c-1.74,1.74-3.71,3.34-6.22,5.06c-0.73,0.5-1.43,0.91-2.13,1.33
						c-1.59,0.95-3.18,1.79-4.77,2.52c-0.86,0.39-1.72,0.78-2.56,1.09c-1.69,0.63-3.48,1.16-5.36,1.58l-1.06,0.29
						c-0.24,0.07-0.47,0.14-0.71,0.2l-9.91,0.7c-1.16-0.05-2.38-0.21-3.67-0.37l-0.88-0.11c-0.29-0.05-0.76-0.08-1.22-0.11
						l-0.35-0.03l-0.51-0.1h-0.4c-0.72-0.03-1.43-0.03-2.15-0.03c-16.92,0-33.62,7.2-45.82,19.76
						c-12.16,12.51-18.86,29.34-18.38,46.18l0.01,0.5l0.09,0.5c0.09,0.48,0.11,0.95,0.15,1.43c0.04,0.57,0.09,1.13,0.16,1.69
						c0.02,0.33,0.09,0.94,0.16,1.54c0.07,0.68,0.16,1.33,0.16,2.01v0.24l-0.71,9.44c-0.05,0.2-0.36,1.29-0.45,1.63
						c-0.48,2.04-1.02,3.84-1.62,5.46c-0.33,0.9-0.66,1.68-1.05,2.49c-0.77,1.67-1.6,3.28-2.54,4.91c-0.42,0.67-0.91,1.45-1.41,2.21
						c-1.64,2.38-3.27,4.38-5.01,6.13C233.86,358.33,222.79,362.92,211,362.92L211,362.92z"/>
				</g>
				<path class="st0" d="M330.1,362.92c-11.79,0-22.88-4.59-31.21-12.93c-8.33-8.33-12.91-19.4-12.92-31.18
					c-0.01-11.77,4.58-22.84,12.9-31.15c1.7-1.71,3.63-3.28,6.27-5.1c0.65-0.44,1.36-0.87,2.1-1.3c1.62-0.97,3.18-1.79,4.8-2.53
					c0.86-0.39,1.7-0.78,2.56-1.1c1.64-0.6,3.42-1.13,5.31-1.54c0,0,1.55-0.45,1.75-0.5l9.97-0.73c1.18,0.05,2.45,0.22,3.77,0.39
					l0.74,0.1c0.49,0.05,0.9,0.09,1.31,0.09c0.16,0.01,0.33,0.01,0.48,0.03l0.31,0.04l0.42,0.04c0.73,0.02,1.47,0.04,2.2,0.04
					c16.89-0.01,33.57-7.2,45.75-19.75c12.15-12.49,18.85-29.34,18.37-46.17l-0.06-2.06l-0.18-0.23c-0.01-0.07-0.01-0.15-0.02-0.23
					c-0.03-0.48-0.05-0.96-0.1-1.45l-0.16-1.41c-0.09-0.78-0.19-1.54-0.22-2.32l0.68-9.55c0.05-0.23,0.4-1.41,0.48-1.77
					c0.56-2.28,1.05-3.95,1.61-5.43c0.31-0.89,0.7-1.7,1.09-2.55c0.7-1.54,1.53-3.1,2.54-4.82l0.19-0.32
					c0.34-0.58,0.67-1.15,1.07-1.71c1.81-2.63,3.41-4.61,5.1-6.31c8.34-8.34,19.42-12.93,31.21-12.93
					c11.78,0,22.85,4.58,31.18,12.91c17.19,17.19,17.19,45.19,0,62.4c-1.67,1.66-3.66,3.27-6.25,5.05c-0.5,0.34-0.98,0.63-1.45,0.92
					l-0.77,0.48c-1.48,0.88-3.08,1.72-4.65,2.43c-0.88,0.4-1.71,0.78-2.59,1.11c-1.54,0.58-3.24,1.07-5.39,1.59
					c-0.43,0.1-0.78,0.21-1.12,0.31c-0.24,0.06-0.46,0.14-0.7,0.19l-9.8,0.68c-1.43-0.06-2.99-0.27-4.49-0.47
					c-0.51-0.06-0.91-0.08-1.3-0.1c-0.15-0.01-0.3-0.01-0.45-0.03l-0.84-0.09c-0.73-0.03-1.45-0.04-2.18-0.04
					c-16.9,0-33.58,7.2-45.78,19.74c-12.15,12.51-18.84,29.34-18.34,46.19l0.01,0.49l0.1,0.49c0.1,0.5,0.12,1.01,0.15,1.51
					c0.03,0.52,0.07,1.03,0.13,1.52c0.03,0.42,0.1,0.95,0.15,1.47c0.09,0.75,0.18,1.5,0.2,2.24l-0.72,9.68
					c-0.05,0.21-0.43,1.52-0.43,1.52c-0.47,2.05-1,3.85-1.62,5.53c-0.29,0.79-0.64,1.56-1,2.36l-0.12,0.28
					c-0.73,1.58-1.55,3.14-2.47,4.66c-0.45,0.75-0.89,1.49-1.36,2.19c-1.73,2.51-3.36,4.5-5.1,6.26
					C352.93,358.35,341.87,362.92,330.1,362.92L330.1,362.92z"/>
				<path class="st0" d="M211.02,243.85c-11.79,0-22.86-4.58-31.19-12.91c-8.33-8.34-12.92-19.42-12.93-31.2
					c-0.01-11.77,4.57-22.83,12.9-31.15c1.71-1.71,3.7-3.32,6.25-5.08c0.67-0.45,1.42-0.91,2.17-1.36c1.52-0.9,3.08-1.73,4.74-2.49
					c0.85-0.39,1.7-0.77,2.6-1.11c1.62-0.6,3.41-1.12,5.27-1.54l1.12-0.31c0.21-0.06,0.41-0.13,0.61-0.18l9.98-0.72
					c1.3,0.05,2.7,0.24,4.17,0.44l0.31,0.04c0.51,0.05,0.91,0.08,1.31,0.09c0.14,0.01,0.29,0.01,0.43,0.03l0.43,0.08l0.4,0.01
					c0.74,0.02,1.47,0.03,2.2,0.03c16.88,0,33.56-7.19,45.75-19.74c12.15-12.51,18.84-29.34,18.35-46.18l-0.01-0.49l-0.1-0.48
					c-0.1-0.53-0.12-1.07-0.15-1.62c-0.03-0.44-0.05-0.89-0.1-1.35l-0.15-1.36c-0.1-0.81-0.2-1.63-0.22-2.45l0.66-9.26l0.06-0.21
					V73.2c0.05-0.21,0.42-1.44,0.42-1.44c0.56-2.37,1.06-4.08,1.62-5.6c0.31-0.83,0.7-1.67,1.1-2.53c0.72-1.58,1.56-3.19,2.53-4.82
					l0.15-0.25c0.38-0.64,0.76-1.27,1.19-1.91c1.75-2.53,3.36-4.52,5.03-6.19c8.34-8.34,19.42-12.93,31.21-12.93
					c11.78,0,22.86,4.58,31.19,12.91c17.19,17.2,17.17,45.19-0.02,62.38c-1.7,1.71-3.73,3.35-6.21,5.04
					c-0.68,0.48-1.26,0.82-1.86,1.17l-0.33,0.19c-1.62,0.96-3.21,1.8-4.71,2.49c-0.89,0.41-1.72,0.79-2.57,1.1
					c-1.65,0.62-3.41,1.14-5.39,1.59c-0.42,0.1-0.79,0.21-1.17,0.31c-0.23,0.06-0.46,0.14-0.69,0.19l-9.78,0.68
					c-1.24-0.06-2.56-0.23-3.95-0.4l-0.6-0.08c-0.45-0.06-0.87-0.08-1.27-0.1c-0.16-0.01-0.33-0.01-0.49-0.03l-0.33-0.04l-0.43-0.03
					c-0.73-0.03-1.46-0.04-2.19-0.04c-16.89,0-33.57,7.19-45.75,19.73c-12.15,12.51-18.85,29.35-18.37,46.2l0.01,0.49l0.09,0.49
					c0.1,0.49,0.12,1,0.16,1.5c0.03,0.52,0.07,1.02,0.13,1.54c0.04,0.41,0.1,0.94,0.17,1.46c0.08,0.74,0.18,1.46,0.19,2.19
					l-0.7,9.61c-0.05,0.25-0.14,0.5-0.21,0.76l-0.25,0.86c-0.49,2.15-1.01,3.94-1.6,5.53c-0.31,0.83-0.72,1.69-1.12,2.58
					c-0.72,1.58-1.54,3.15-2.5,4.75c-0.46,0.77-0.88,1.48-1.34,2.16c-1.81,2.62-3.37,4.55-5.07,6.24
					C233.84,239.27,222.78,243.85,211.02,243.85L211.02,243.85z"/>
			</g>
		</g>
	</g>
	<g class="st1">
		<path class="st2" d="M43.74,456.83l11.74-27.7H72.1l-20.55,40.89v22.92h-15.6v-22.92l-20.51-40.89h16.52L43.74,456.83z"/>
		<path class="st2" d="M71.35,468.79c0-4.73,0.92-8.95,2.76-12.64c1.84-3.7,4.48-6.54,7.93-8.52c3.45-1.99,7.49-2.98,12.14-2.98
			c7.1,0,12.69,2.2,16.78,6.6c4.09,4.4,6.14,10.38,6.14,17.95v0.53c0,7.39-2.05,13.26-6.16,17.59c-4.1,4.34-9.66,6.51-16.67,6.51
			c-6.75,0-12.17-2.02-16.26-6.07c-4.09-4.05-6.3-9.53-6.62-16.45L71.35,468.79z M86.12,469.71c0,4.38,0.69,7.6,2.06,9.64
			c1.37,2.05,3.4,3.07,6.09,3.07c5.26,0,7.95-4.05,8.06-12.14v-1.49c0-8.5-2.72-12.75-8.15-12.75c-4.94,0-7.61,3.67-8.02,11
			L86.12,469.71z"/>
		<path class="st2" d="M151.85,487.81c-3.13,4-7.35,6-12.66,6c-5.2,0-9.14-1.51-11.81-4.54c-2.67-3.02-4.01-7.37-4.01-13.04v-30.72
			h14.77v30.81c0,4.06,1.97,6.09,5.92,6.09c3.39,0,5.8-1.21,7.23-3.64v-33.26h14.86v47.42h-13.85L151.85,487.81z"/>
		<path class="st2" d="M202.9,458.89l-4.86-0.35c-4.65,0-7.62,1.46-8.94,4.38v30.02h-14.77v-47.42h13.85l0.48,6.09
			c2.48-4.64,5.94-6.97,10.39-6.97c1.58,0,2.95,0.18,4.12,0.53L202.9,458.89z"/>
		<path class="st2" d="M246.64,481.1h26.78v11.83h-42.16v-63.8h15.38V481.1z"/>
		<path class="st2" d="M277.36,468.79c0-4.73,0.92-8.95,2.76-12.64c1.84-3.7,4.48-6.54,7.93-8.52c3.45-1.99,7.49-2.98,12.14-2.98
			c7.1,0,12.69,2.2,16.78,6.6c4.09,4.4,6.13,10.38,6.13,17.95v0.53c0,7.39-2.05,13.26-6.16,17.59c-4.11,4.34-9.66,6.51-16.68,6.51
			c-6.75,0-12.17-2.02-16.26-6.07c-4.09-4.05-6.3-9.53-6.62-16.45L277.36,468.79z M292.12,469.71c0,4.38,0.69,7.6,2.06,9.64
			c1.37,2.05,3.4,3.07,6.09,3.07c5.26,0,7.95-4.05,8.06-12.14v-1.49c0-8.5-2.72-12.75-8.15-12.75c-4.94,0-7.61,3.67-8.02,11
			L292.12,469.71z"/>
		<path class="st2" d="M327.88,468.88c0-4.79,0.79-9.03,2.37-12.71c1.58-3.68,3.84-6.52,6.79-8.52c2.95-2,6.38-3,10.3-3
			c4.94,0,8.79,1.67,11.57,5l0.53-4.12h13.41v45.62c0,4.18-0.97,7.81-2.91,10.89c-1.94,3.08-4.75,5.45-8.44,7.1
			c-3.68,1.65-7.95,2.48-12.8,2.48c-3.48,0-6.84-0.66-10.1-1.97c-3.26-1.31-5.75-3.02-7.47-5.13l6.18-8.68
			c2.75,3.24,6.37,4.86,10.87,4.86c6.54,0,9.82-3.36,9.82-10.08v-1.49c-2.83,3.13-6.41,4.69-10.74,4.69
			c-5.78,0-10.46-2.21-14.02-6.64c-3.56-4.43-5.35-10.35-5.35-17.77V468.88z M342.69,469.8c0,3.89,0.73,6.96,2.19,9.22
			c1.46,2.26,3.51,3.4,6.13,3.4c3.18,0,5.51-1.07,6.97-3.2v-19.94c-1.43-2.16-3.72-3.24-6.88-3.24c-2.63,0-4.69,1.18-6.18,3.53
			S342.69,465.33,342.69,469.8z"/>
		<path class="st2" d="M379.37,468.79c0-4.73,0.92-8.95,2.76-12.64c1.84-3.7,4.48-6.54,7.93-8.52c3.45-1.99,7.49-2.98,12.14-2.98
			c7.1,0,12.69,2.2,16.78,6.6c4.09,4.4,6.13,10.38,6.13,17.95v0.53c0,7.39-2.05,13.26-6.16,17.59c-4.11,4.34-9.66,6.51-16.67,6.51
			c-6.75,0-12.17-2.02-16.26-6.07c-4.09-4.05-6.3-9.53-6.62-16.45L379.37,468.79z M394.14,469.71c0,4.38,0.69,7.6,2.06,9.64
			c1.37,2.05,3.4,3.07,6.09,3.07c5.26,0,7.95-4.05,8.06-12.14v-1.49c0-8.5-2.72-12.75-8.15-12.75c-4.94,0-7.61,3.67-8.02,11
			L394.14,469.71z"/>
		<path class="st2" d="M507.99,492.94H492.7v-26.64h-22.66v26.64h-15.38v-63.8h15.38v25.33h22.66v-25.33h15.29V492.94z"/>
		<path class="st2" d="M539.98,493.81c-7.27,0-13.16-2.17-17.66-6.51c-4.5-4.34-6.75-9.98-6.75-16.94v-1.23
			c0-4.85,0.9-9.13,2.7-12.84s4.42-6.58,7.87-8.61c3.45-2.03,7.54-3.05,12.27-3.05c6.66,0,11.92,2.07,15.78,6.2
			c3.86,4.13,5.78,9.9,5.78,17.29v5.74H530.6c0.53,2.66,1.68,4.75,3.46,6.27c1.78,1.52,4.09,2.28,6.92,2.28
			c4.67,0,8.33-1.64,10.96-4.91l6.75,7.98c-1.84,2.54-4.45,4.56-7.82,6.07C547.5,493.06,543.87,493.81,539.98,493.81z
			 M538.32,456.04c-4.32,0-6.9,2.86-7.71,8.59h14.9v-1.14c0.06-2.37-0.54-4.2-1.8-5.5C542.45,456.69,540.65,456.04,538.32,456.04z"
			/>
		<path class="st2" d="M594.58,458.89l-4.86-0.35c-4.64,0-7.62,1.46-8.94,4.38v30.02h-14.77v-47.42h13.85l0.48,6.09
			c2.48-4.64,5.95-6.97,10.39-6.97c1.58,0,2.95,0.18,4.12,0.53L594.58,458.89z"/>
		<path class="st2" d="M622.01,493.81c-7.27,0-13.16-2.17-17.66-6.51c-4.5-4.34-6.75-9.98-6.75-16.94v-1.23
			c0-4.85,0.9-9.13,2.7-12.84s4.42-6.58,7.87-8.61c3.45-2.03,7.54-3.05,12.27-3.05c6.66,0,11.92,2.07,15.78,6.2
			c3.86,4.13,5.78,9.9,5.78,17.29v5.74h-29.36c0.53,2.66,1.68,4.75,3.46,6.27c1.78,1.52,4.09,2.28,6.92,2.28
			c4.67,0,8.33-1.64,10.96-4.91l6.75,7.98c-1.84,2.54-4.45,4.56-7.82,6.07C629.53,493.06,625.9,493.81,622.01,493.81z
			 M620.35,456.04c-4.32,0-6.9,2.86-7.71,8.59h14.9v-1.14c0.06-2.37-0.54-4.2-1.8-5.5C624.48,456.69,622.69,456.04,620.35,456.04z"
			/>
	</g>
</g>
</svg>
